<svg version="1.1" xmlns="http://www.w3.org/2000/svg" xmlns:xlink="http://www.w3.org/1999/xlink" width="411.66817" height="53.5" viewBox="0,0,411.66817,53.5"><g transform="translate(-114.16592,-153.25)"><g data-paper-data="{&quot;isPaintingLayer&quot;:true}" fill-rule="nonzero" stroke-linecap="butt" stroke-linejoin="miter" stroke-miterlimit="10" stroke-dasharray="" stroke-dashoffset="0" style="mix-blend-mode: normal"><path d="M115.91592,205v-50h408.16817v50z" fill="#735dff" stroke="#403773" stroke-width="3.5"/><text transform="translate(126.93508,197.67984) scale(0.34832,0.34832)" font-size="40" xml:space="preserve" fill="#735dff" fill-rule="nonzero" stroke="#3e356f" stroke-width="2" stroke-linecap="butt" stroke-linejoin="miter" stroke-miterlimit="10" stroke-dasharray="" stroke-dashoffset="0" font-family="Sans Serif" font-weight="normal" text-anchor="start" style="mix-blend-mode: normal"><tspan x="0" dy="0">Mold Printer</tspan></text><text transform="translate(226.43508,198.17984) scale(0.34832,0.34832)" font-size="40" xml:space="preserve" fill="#735dff" fill-rule="nonzero" stroke="#3e356f" stroke-width="2" stroke-linecap="butt" stroke-linejoin="miter" stroke-miterlimit="10" stroke-dasharray="" stroke-dashoffset="0" font-family="Sans Serif" font-weight="normal" text-anchor="start" style="mix-blend-mode: normal"><tspan x="0" dy="0">50k Bears, 1000 CPS</tspan></text><path d="M171.61431,179.82491c0,-1.54976 0,-3.65786 0,-4.63048c0,-0.82528 1.11454,-1.9193 1.5502,-1.9193c0.85037,0 3.33075,0 5.03312,0c0.8238,0 1.671,0.87384 1.671,1.58376c0,0.91462 0,3.30968 0,4.96602c0,0.98215 -1.04507,1.70455 -1.73811,1.70455c-0.96969,0 -3.02304,0 -4.63048,0c-0.79448,0 -1.88574,-0.86525 -1.88574,-1.70455z" fill="#5ce4ff" stroke="#366870" stroke-width="1.5"/><path d="M173.05714,176.15354c0,-0.40319 0,-0.95164 0,-1.20468c0,-0.21471 0.28996,-0.49933 0.4033,-0.49933c0.22123,0 0.86654,0 1.30943,0c0.21432,0 0.43473,0.22734 0.43473,0.41203c0,0.23795 0,0.86106 0,1.29197c0,0.25552 -0.27189,0.44346 -0.45219,0.44346c-0.25228,0 -0.78648,0 -1.20468,0c-0.20669,0 -0.4906,-0.2251 -0.4906,-0.44346z" fill="#368696" stroke="#162b2e" stroke-width="1.5"/><path d="M176.47967,176.22064c0,-0.40319 0,-0.95164 0,-1.20468c0,-0.21471 0.28996,-0.49933 0.4033,-0.49933c0.22123,0 0.86653,0 1.30943,0c0.21432,0 0.43473,0.22734 0.43473,0.41204c0,0.23795 0,0.86105 0,1.29197c0,0.25552 -0.27189,0.44346 -0.45219,0.44346c-0.25228,0 -0.78648,0 -1.20468,0c-0.20669,0 -0.4906,-0.2251 -0.4906,-0.44346z" fill="#368696" stroke="#162b2e" stroke-width="1.5"/><path d="M173.17492,179.77739c0,-0.40319 0,-0.95164 0,-1.20468c0,-0.21471 0.28996,-0.49933 0.4033,-0.49933c0.22123,0 0.86654,0 1.30943,0c0.21432,0 0.43473,0.22734 0.43473,0.41203c0,0.23795 0,0.86106 0,1.29197c0,0.25552 -0.27189,0.44346 -0.45219,0.44346c-0.25228,0 -0.78648,0 -1.20468,0c-0.20669,0 -0.4906,-0.2251 -0.4906,-0.44346z" fill="#368696" stroke="#162b2e" stroke-width="1.5"/><path d="M176.47967,179.8445c0,-0.40319 0,-0.95164 0,-1.20468c0,-0.21471 0.28996,-0.49933 0.4033,-0.49933c0.22123,0 0.86653,0 1.30943,0c0.21432,0 0.43473,0.22734 0.43473,0.41204c0,0.23795 0,0.86105 0,1.29197c0,0.25552 -0.27189,0.44346 -0.45219,0.44346c-0.25228,0 -0.78648,0 -1.20468,0c-0.20669,0 -0.4906,-0.2251 -0.4906,-0.44346z" fill="#368696" stroke="#162b2e" stroke-width="1.5"/><path d="M165.5,184.89234c0,0 0,-14.9505 0,-18.20028c0,-1.18881 1.41258,-2.43554 2.71577,-2.43554c2.48113,0 11.12851,0 15.43865,0c1.50516,0 2.4814,1.70639 2.4814,3.19983c0,3.48617 0,17.43599 0,17.43599l-5.99699,0.3323c0,0 1.32196,-17.87434 -0.63646,-17.90147c-2.12151,-0.02939 -6.60586,-0.16235 -7.92372,-0.16235c-1.03339,0 -1.35854,17.83656 -1.35854,17.83656z" fill="#5a5a5a" stroke="#1d1d1d" stroke-width="1.5"/><path d="M173.5658,168.37349v-9.17147h4.43288v9.17147z" fill="#5a5a5a" stroke="#1d1d1d" stroke-width="1.5"/></g></g></svg>