<svg version="1.1" xmlns="http://www.w3.org/2000/svg" xmlns:xlink="http://www.w3.org/1999/xlink" width="411.66817" height="53.5" viewBox="0,0,411.66817,53.5"><g transform="translate(-114.16592,-153.25)"><g data-paper-data="{&quot;isPaintingLayer&quot;:true}" fill-rule="nonzero" stroke-linecap="butt" stroke-linejoin="miter" stroke-miterlimit="10" stroke-dasharray="" stroke-dashoffset="0" style="mix-blend-mode: normal"><path d="M115.91592,205v-50h408.16817v50z" fill="#735dff" stroke="#403773" stroke-width="3.5"/><text transform="translate(126.93508,197.67984) scale(0.34832,0.34832)" font-size="40" xml:space="preserve" fill="#735dff" fill-rule="nonzero" stroke="#3e356f" stroke-width="2" stroke-linecap="butt" stroke-linejoin="miter" stroke-miterlimit="10" stroke-dasharray="" stroke-dashoffset="0" font-family="Sans Serif" font-weight="normal" text-anchor="start" style="mix-blend-mode: normal"><tspan x="0" dy="0">Gelatin Boiler</tspan></text><text transform="translate(226.43508,198.17984) scale(0.34832,0.34832)" font-size="40" xml:space="preserve" fill="#735dff" fill-rule="nonzero" stroke="#3e356f" stroke-width="2" stroke-linecap="butt" stroke-linejoin="miter" stroke-miterlimit="10" stroke-dasharray="" stroke-dashoffset="0" font-family="Sans Serif" font-weight="normal" text-anchor="start" style="mix-blend-mode: normal"><tspan x="0" dy="0">50 Bears, 1 CPS</tspan></text><path d="M164.03338,183.91667c0,0 0,-2.23952 0,-4.09653c0,-3.94558 -0.79127,-13.38401 5.11203,-18.21678c2.59617,-2.12537 5.1094,-2.82984 6.91104,-2.68016c2.84869,0.23667 3.78413,0.52176 6.55984,3.37098c4.9547,5.08591 4.00672,13.2561 4.00672,17.24963c0,1.95661 0,4.37285 0,4.37285z" fill="#919191" stroke="#2e2e2e" stroke-width="2.5"/><path d="M167.25147,183.62268c0,0 0,-1.5988 0,-2.92453c0,-2.81677 -0.56489,-9.55492 3.64951,-13.00506c1.85342,-1.51731 3.64763,-2.02024 4.93383,-1.91338c2.0337,0.16896 2.70151,0.37249 4.68311,2.40656c3.53719,3.63086 2.86042,9.46361 2.86042,12.31461c0,1.39683 0,3.12181 0,3.12181z" fill="#4b4b4b" stroke="#2e2e2e" stroke-width="2.5"/><path d="M173.20355,182.26562c-2.33038,-1.45991 -1.31255,-4.4143 -1.31255,-4.4143l1.31255,-2.56292l0.87096,2.60711l1.14667,-2.73132l1.06094,3.19861l1.48081,-3.21256l1.20532,3.32455c0,0 0.23807,2.83979 -0.99808,3.65267c-0.76226,0.50126 -1.57937,0.83654 -2.58823,0.81409c-1.11043,-0.02471 -1.28503,-0.11627 -2.17839,-0.67593z" fill="#ff3c3c" stroke="#ff0000" stroke-width="1.5"/><path d="M177.97016,182.47287c-2.33038,-1.45991 -1.31255,-4.4143 -1.31255,-4.4143l1.31255,-2.56292l0.87096,2.60711l1.14667,-2.73132l1.06094,3.19861l1.48081,-3.21256l1.20532,3.32455c0,0 0.23807,2.83979 -0.99808,3.65267c-0.76226,0.50126 -1.57937,0.83654 -2.58823,0.81409c-1.11043,-0.02471 -1.28503,-0.11627 -2.17839,-0.67593z" fill="#ff3c3c" stroke="#ff0000" stroke-width="1.5"/><path d="M168.57509,182.47287c-2.33038,-1.45991 -1.31255,-4.4143 -1.31255,-4.4143l1.31255,-2.56292l0.87096,2.60711l1.14667,-2.73132l1.06094,3.19861l1.48081,-3.21256l1.20532,3.32455c0,0 0.23807,2.83979 -0.99808,3.65267c-0.76226,0.50126 -1.57937,0.83654 -2.58823,0.81409c-1.11043,-0.02471 -1.28503,-0.11627 -2.17839,-0.67593z" fill="#ff3c3c" stroke="#ff0000" stroke-width="1.5"/></g></g></svg>