<svg version="1.1" xmlns="http://www.w3.org/2000/svg" xmlns:xlink="http://www.w3.org/1999/xlink" width="411.66817" height="53.5" viewBox="0,0,411.66817,53.5"><g transform="translate(-114.16592,-153.25)"><g data-paper-data="{&quot;isPaintingLayer&quot;:true}" fill-rule="nonzero" stroke-linecap="butt" stroke-linejoin="miter" stroke-miterlimit="10" stroke-dasharray="" stroke-dashoffset="0" style="mix-blend-mode: normal"><path d="M115.91592,205v-50h408.16817v50z" fill="#735dff" stroke="#403773" stroke-width="3.5"/><text transform="translate(126.93508,197.67984) scale(0.34832,0.34832)" font-size="40" xml:space="preserve" fill="#735dff" fill-rule="nonzero" stroke="#3e356f" stroke-width="2" stroke-linecap="butt" stroke-linejoin="miter" stroke-miterlimit="10" stroke-dasharray="" stroke-dashoffset="0" font-family="Sans Serif" font-weight="normal" text-anchor="start" style="mix-blend-mode: normal"><tspan x="0" dy="0">Gummy Mold</tspan></text><text transform="translate(226.43508,198.17984) scale(0.34832,0.34832)" font-size="40" xml:space="preserve" fill="#735dff" fill-rule="nonzero" stroke="#3e356f" stroke-width="2" stroke-linecap="butt" stroke-linejoin="miter" stroke-miterlimit="10" stroke-dasharray="" stroke-dashoffset="0" font-family="Sans Serif" font-weight="normal" text-anchor="start" style="mix-blend-mode: normal"><tspan x="0" dy="0">200 Bears, 5 CPS</tspan></text><path d="M162.16667,180.6019c0,-4.75637 0,-11.22633 0,-14.21138c0,-2.53286 3.42062,-5.89052 4.75772,-5.89052c2.60986,0 10.22239,0 15.44715,0c2.52834,0 5.12846,2.68189 5.12846,4.86071c0,2.80706 0,10.15773 0,15.24119c0,3.0143 -3.20741,5.23144 -5.33442,5.23144c-2.97608,0 -9.27801,0 -14.21139,0c-2.43833,0 -5.78753,-2.65553 -5.78753,-5.23144z" fill="#5ce4ff" stroke="#366870" stroke-width="2.5"/><path d="M166.59485,169.3341c0,-1.23743 0,-2.92067 0,-3.69727c0,-0.65896 0.88992,-1.53249 1.23778,-1.53249c0.67899,0 2.65948,0 4.01877,0c0.65778,0 1.33423,0.69773 1.33423,1.26457c0,0.73029 0,2.64266 0,3.96519c0,0.78421 -0.83445,1.36102 -1.38782,1.36102c-0.77426,0 -2.41379,0 -3.69727,0c-0.63436,0 -1.5057,-0.69087 -1.5057,-1.36102z" fill="#368696" stroke="#162b2e" stroke-width="2.5"/><path d="M177.09891,169.54006c0,-1.23743 0,-2.92067 0,-3.69727c0,-0.65896 0.88992,-1.53249 1.23778,-1.53249c0.67899,0 2.65948,0 4.01877,0c0.65778,0 1.33423,0.69773 1.33423,1.26458c0,0.73029 0,2.64266 0,3.96519c0,0.78421 -0.83445,1.36102 -1.38782,1.36102c-0.77426,0 -2.41379,0 -3.69727,0c-0.63436,0 -1.5057,-0.69087 -1.5057,-1.36102z" fill="#368696" stroke="#162b2e" stroke-width="2.5"/><path d="M166.59485,180.45605c0,-1.23743 0,-2.92067 0,-3.69727c0,-0.65896 0.88992,-1.53249 1.23778,-1.53249c0.67899,0 2.65948,0 4.01877,0c0.65778,0 1.33423,0.69773 1.33423,1.26457c0,0.73029 0,2.64266 0,3.96519c0,0.78421 -0.83445,1.36102 -1.38782,1.36102c-0.77426,0 -2.41379,0 -3.69727,0c-0.63436,0 -1.5057,-0.69087 -1.5057,-1.36102z" fill="#368696" stroke="#162b2e" stroke-width="2.5"/><path d="M177.09891,180.66201c0,-1.23743 0,-2.92067 0,-3.69727c0,-0.65896 0.88992,-1.53249 1.23778,-1.53249c0.67899,0 2.65948,0 4.01877,0c0.65778,0 1.33423,0.69773 1.33423,1.26458c0,0.73029 0,2.64266 0,3.96519c0,0.78421 -0.83445,1.36102 -1.38782,1.36102c-0.77426,0 -2.41379,0 -3.69727,0c-0.63436,0 -1.5057,-0.69087 -1.5057,-1.36102z" fill="#368696" stroke="#162b2e" stroke-width="2.5"/></g></g></svg>