<svg version="1.1" xmlns="http://www.w3.org/2000/svg" xmlns:xlink="http://www.w3.org/1999/xlink" width="411.66817" height="53.5" viewBox="0,0,411.66817,53.5"><g transform="translate(-114.16592,-153.25)"><g data-paper-data="{&quot;isPaintingLayer&quot;:true}" fill-rule="nonzero" stroke-linecap="butt" stroke-linejoin="miter" stroke-miterlimit="10" stroke-dasharray="" stroke-dashoffset="0" style="mix-blend-mode: normal"><path d="M115.91592,205v-50h408.16817v50z" fill="#735dff" stroke="#403773" stroke-width="3.5"/><text transform="translate(126.93508,197.67984) scale(0.34832,0.34832)" font-size="40" xml:space="preserve" fill="#735dff" fill-rule="nonzero" stroke="#3e356f" stroke-width="2" stroke-linecap="butt" stroke-linejoin="miter" stroke-miterlimit="10" stroke-dasharray="" stroke-dashoffset="0" font-family="Sans Serif" font-weight="normal" text-anchor="start" style="mix-blend-mode: normal"><tspan x="0" dy="0">Gummy Dye</tspan></text><text transform="translate(226.43508,198.17984) scale(0.34832,0.34832)" font-size="40" xml:space="preserve" fill="#735dff" fill-rule="nonzero" stroke="#3e356f" stroke-width="2" stroke-linecap="butt" stroke-linejoin="miter" stroke-miterlimit="10" stroke-dasharray="" stroke-dashoffset="0" font-family="Sans Serif" font-weight="normal" text-anchor="start" style="mix-blend-mode: normal"><tspan x="0" dy="0">1M Bears, 20k CPS</tspan></text><path d="M172,183.49065c0,-4.97008 0,-16.0529 0,-18.558c0,-0.98652 1.08688,-1.92837 2.03205,-1.92837c1.51082,0 6.1209,0 8.81246,0c1.19463,0 2.01131,0.82813 2.01131,1.72102c0,2.4525 0,13.73855 0,18.66168c0,1.36638 -1.01077,2.52969 -2.42602,2.52969c-2.69233,0 -6.84847,0 -8.29408,0c-0.98442,0 -2.13573,-0.93965 -2.13573,-2.42602z" fill="#9966ff" stroke="#5100b3" stroke-width="1"/><path d="M172.26956,175.40392v-4.56174h12.13009v4.56174z" fill="#38157f" stroke="#1f0046" stroke-width="0.5"/><text transform="translate(173.30632,174.05715) scale(0.07663,0.07663)" font-size="40" xml:space="preserve" fill="#38157f" fill-rule="nonzero" stroke="#0f0025" stroke-width="2" stroke-linecap="butt" stroke-linejoin="miter" stroke-miterlimit="10" stroke-dasharray="" stroke-dashoffset="0" font-family="Sans Serif" font-weight="normal" text-anchor="start" style="mix-blend-mode: normal"><tspan x="0" dy="0">101365</tspan></text><path d="M176.52027,162.9628v-1.45146h3.83601v1.45146z" fill="#38157f" stroke="#0f0025" stroke-width="1"/><path d="M177.44299,161.50097l0.98492,-3.62866h0.10368l0.88125,3.62866z" fill="#38157f" stroke="#0f0025" stroke-width="1"/></g></g></svg>