<svg version="1.1" xmlns="http://www.w3.org/2000/svg" xmlns:xlink="http://www.w3.org/1999/xlink" width="411.66817" height="53.5" viewBox="0,0,411.66817,53.5"><g transform="translate(-114.16591,-153.25)"><g data-paper-data="{&quot;isPaintingLayer&quot;:true}" fill-rule="nonzero" stroke-linecap="butt" stroke-linejoin="miter" stroke-miterlimit="10" stroke-dasharray="" stroke-dashoffset="0" style="mix-blend-mode: normal"><path d="M115.91591,205v-50h408.16817v50z" fill="#735dff" stroke="#403773" stroke-width="3.5"/><text transform="translate(130.43508,197.67984) scale(0.34832,0.34832)" font-size="40" xml:space="preserve" fill="#735dff" fill-rule="nonzero" stroke="#3e356f" stroke-width="2" stroke-linecap="butt" stroke-linejoin="miter" stroke-miterlimit="10" stroke-dasharray="" stroke-dashoffset="0" font-family="Sans Serif" font-weight="normal" text-anchor="start" style="mix-blend-mode: normal"><tspan x="0" dy="0">Super Printer</tspan></text><text transform="translate(226.43508,198.17984) scale(0.34832,0.34832)" font-size="40" xml:space="preserve" fill="#735dff" fill-rule="nonzero" stroke="#3e356f" stroke-width="2" stroke-linecap="butt" stroke-linejoin="miter" stroke-miterlimit="10" stroke-dasharray="" stroke-dashoffset="0" font-family="Sans Serif" font-weight="normal" text-anchor="start" style="mix-blend-mode: normal"><tspan x="0" dy="0">5M Bears, 100000 CPS</tspan></text><path d="M165.5,184.89234c0,0 0,-14.9505 0,-18.20028c0,-1.18881 1.41258,-2.43554 2.71577,-2.43554c2.48113,0 11.12851,0 15.43865,0c1.50516,0 2.4814,1.70639 2.4814,3.19983c0,3.48617 0,17.43599 0,17.43599l-5.99699,0.3323c0,0 1.32196,-17.87434 -0.63646,-17.90147c-2.12151,-0.02939 -6.60586,-0.16235 -7.92372,-0.16235c-1.03339,0 -1.35854,17.83656 -1.35854,17.83656z" fill="#5a5a5a" stroke="#1d1d1d" stroke-width="1.5"/><path d="M173.5658,168.37349v-9.17147h4.43288v9.17147z" fill="#5a5a5a" stroke="#1d1d1d" stroke-width="1.5"/><path d="M170.66666,183.11352c0,-0.90016 0,-2.12461 0,-2.68954c0,-0.47935 0.64736,-1.1148 0.90041,-1.1148c0.49392,0 1.93462,0 2.92341,0c0.4785,0 0.97057,0.50756 0.97057,0.9199c0,0.53124 0,1.92238 0,2.88444c0,0.57046 -0.60701,0.99006 -1.00956,0.99006c-0.56323,0 -1.75589,0 -2.68954,0c-0.46146,0 -1.09531,-0.50257 -1.09531,-0.99006z" fill="#1e4b54" stroke="#112224" stroke-width="0.5"/><path d="M171.50471,180.98106c0,-0.23419 0,-0.55274 0,-0.69972c0,-0.12471 0.16842,-0.29003 0.23425,-0.29003c0.1285,0 0.50332,0 0.76056,0c0.12449,0 0.25251,0.13205 0.25251,0.23932c0,0.13821 0,0.50013 0,0.75042c0,0.14841 -0.15792,0.25758 -0.26265,0.25758c-0.14653,0 -0.45682,0 -0.69972,0c-0.12005,0 -0.28496,-0.13075 -0.28496,-0.25758z" fill="#1a4148" stroke="#162b2e" stroke-width="0.5"/><path d="M173.49262,181.02004c0,-0.23419 0,-0.55274 0,-0.69972c0,-0.12471 0.16842,-0.29003 0.23425,-0.29003c0.1285,0 0.50332,0 0.76056,0c0.12449,0 0.25251,0.13205 0.25251,0.23932c0,0.13821 0,0.50013 0,0.75042c0,0.14841 -0.15792,0.25758 -0.26265,0.25758c-0.14653,0 -0.45682,0 -0.69972,0c-0.12005,0 -0.28496,-0.13075 -0.28496,-0.25758z" fill="#1a4148" stroke="#162b2e" stroke-width="0.5"/><path d="M171.50471,183.08592c0,-0.23419 0,-0.55274 0,-0.69972c0,-0.12471 0.16842,-0.29003 0.23425,-0.29003c0.1285,0 0.50332,0 0.76056,0c0.12449,0 0.25251,0.13205 0.25251,0.23932c0,0.13821 0,0.50013 0,0.75042c0,0.14841 -0.15792,0.25758 -0.26265,0.25758c-0.14653,0 -0.45682,0 -0.69972,0c-0.12005,0 -0.28496,-0.13075 -0.28496,-0.25758z" fill="#1a4148" stroke="#162b2e" stroke-width="0.5"/><path d="M173.49262,183.1249c0,-0.23419 0,-0.55274 0,-0.69972c0,-0.12471 0.16842,-0.29003 0.23425,-0.29003c0.1285,0 0.50332,0 0.76056,0c0.12449,0 0.25251,0.13205 0.25251,0.23932c0,0.13821 0,0.50013 0,0.75042c0,0.14841 -0.15792,0.25758 -0.26265,0.25758c-0.14653,0 -0.45682,0 -0.69972,0c-0.12005,0 -0.28496,-0.13075 -0.28496,-0.25758z" fill="#1a4148" stroke="#162b2e" stroke-width="0.5"/><path d="M175.77648,183.17661c0,-0.90016 0,-2.12461 0,-2.68954c0,-0.47935 0.64736,-1.1148 0.90041,-1.1148c0.49392,0 1.93462,0 2.92341,0c0.4785,0 0.97057,0.50756 0.97057,0.9199c0,0.53124 0,1.92238 0,2.88444c0,0.57046 -0.60701,0.99006 -1.00956,0.99006c-0.56323,0 -1.75589,0 -2.68954,0c-0.46146,0 -1.09531,-0.50257 -1.09531,-0.99006z" fill="#1e4b54" stroke="#112224" stroke-width="0.5"/><path d="M176.61453,181.04414c0,-0.23419 0,-0.55274 0,-0.69972c0,-0.12471 0.16842,-0.29003 0.23425,-0.29003c0.1285,0 0.50332,0 0.76056,0c0.12449,0 0.25251,0.13205 0.25251,0.23932c0,0.13821 0,0.50013 0,0.75042c0,0.14841 -0.15792,0.25758 -0.26265,0.25758c-0.14653,0 -0.45682,0 -0.69972,0c-0.12005,0 -0.28496,-0.13075 -0.28496,-0.25758z" fill="#1a4148" stroke="#162b2e" stroke-width="0.5"/><path d="M178.60245,181.08312c0,-0.23419 0,-0.55274 0,-0.69972c0,-0.12471 0.16842,-0.29003 0.23425,-0.29003c0.1285,0 0.50332,0 0.76056,0c0.12449,0 0.25251,0.13205 0.25251,0.23932c0,0.13821 0,0.50013 0,0.75042c0,0.14841 -0.15792,0.25758 -0.26265,0.25758c-0.14653,0 -0.45682,0 -0.69972,0c-0.12005,0 -0.28496,-0.13075 -0.28496,-0.25758z" fill="#1a4148" stroke="#162b2e" stroke-width="0.5"/><path d="M176.61453,183.149c0,-0.23419 0,-0.55274 0,-0.69972c0,-0.12471 0.16842,-0.29003 0.23425,-0.29003c0.1285,0 0.50332,0 0.76056,0c0.12449,0 0.25251,0.13205 0.25251,0.23932c0,0.13821 0,0.50013 0,0.75042c0,0.14841 -0.15792,0.25758 -0.26265,0.25758c-0.14653,0 -0.45682,0 -0.69972,0c-0.12005,0 -0.28496,-0.13075 -0.28496,-0.25758z" fill="#1a4148" stroke="#162b2e" stroke-width="0.5"/><path d="M178.60245,183.18798c0,-0.23419 0,-0.55274 0,-0.69972c0,-0.12471 0.16842,-0.29003 0.23425,-0.29003c0.1285,0 0.50332,0 0.76056,0c0.12449,0 0.25251,0.13205 0.25251,0.23932c0,0.13821 0,0.50013 0,0.75042c0,0.14841 -0.15792,0.25758 -0.26265,0.25758c-0.14653,0 -0.45682,0 -0.69972,0c-0.12005,0 -0.28496,-0.13075 -0.28496,-0.25758z" fill="#1a4148" stroke="#162b2e" stroke-width="0.5"/><path d="M170.72974,178.06678c0,-0.90016 0,-2.12461 0,-2.68954c0,-0.47935 0.64736,-1.1148 0.90041,-1.1148c0.49392,0 1.93462,0 2.92341,0c0.4785,0 0.97057,0.50756 0.97057,0.9199c0,0.53124 0,1.92238 0,2.88444c0,0.57046 -0.60701,0.99006 -1.00956,0.99006c-0.56323,0 -1.75589,0 -2.68954,0c-0.46146,0 -1.09531,-0.50257 -1.09531,-0.99006z" fill="#1e4b54" stroke="#112224" stroke-width="0.5"/><path d="M171.56779,175.93432c0,-0.23419 0,-0.55274 0,-0.69972c0,-0.12471 0.16842,-0.29003 0.23425,-0.29003c0.1285,0 0.50332,0 0.76056,0c0.12449,0 0.25251,0.13205 0.25251,0.23932c0,0.13821 0,0.50013 0,0.75042c0,0.14841 -0.15792,0.25758 -0.26265,0.25758c-0.14653,0 -0.45682,0 -0.69972,0c-0.12005,0 -0.28496,-0.13075 -0.28496,-0.25758z" fill="#1a4148" stroke="#162b2e" stroke-width="0.5"/><path d="M173.55571,175.9733c0,-0.23419 0,-0.55274 0,-0.69972c0,-0.12471 0.16842,-0.29003 0.23425,-0.29003c0.1285,0 0.50332,0 0.76056,0c0.12449,0 0.25251,0.13205 0.25251,0.23932c0,0.13821 0,0.50013 0,0.75042c0,0.14841 -0.15792,0.25758 -0.26265,0.25758c-0.14653,0 -0.45682,0 -0.69972,0c-0.12005,0 -0.28496,-0.13075 -0.28496,-0.25758z" fill="#1a4148" stroke="#162b2e" stroke-width="0.5"/><path d="M171.56779,178.03918c0,-0.23419 0,-0.55274 0,-0.69972c0,-0.12471 0.16842,-0.29003 0.23425,-0.29003c0.1285,0 0.50332,0 0.76056,0c0.12449,0 0.25251,0.13205 0.25251,0.23932c0,0.13821 0,0.50013 0,0.75042c0,0.14841 -0.15792,0.25758 -0.26265,0.25758c-0.14653,0 -0.45682,0 -0.69972,0c-0.12005,0 -0.28496,-0.13075 -0.28496,-0.25758z" fill="#1a4148" stroke="#162b2e" stroke-width="0.5"/><path d="M173.55571,178.07816c0,-0.23419 0,-0.55274 0,-0.69972c0,-0.12471 0.16842,-0.29003 0.23425,-0.29003c0.1285,0 0.50332,0 0.76056,0c0.12449,0 0.25251,0.13205 0.25251,0.23932c0,0.13821 0,0.50013 0,0.75042c0,0.14841 -0.15792,0.25758 -0.26265,0.25758c-0.14653,0 -0.45682,0 -0.69972,0c-0.12005,0 -0.28496,-0.13075 -0.28496,-0.25758z" fill="#1a4148" stroke="#162b2e" stroke-width="0.5"/><path d="M175.83956,178.12987c0,-0.90016 0,-2.12461 0,-2.68954c0,-0.47935 0.64736,-1.1148 0.90041,-1.1148c0.49392,0 1.93462,0 2.92341,0c0.4785,0 0.97057,0.50756 0.97057,0.9199c0,0.53124 0,1.92238 0,2.88444c0,0.57046 -0.60701,0.99006 -1.00956,0.99006c-0.56323,0 -1.75589,0 -2.68954,0c-0.46146,0 -1.09531,-0.50257 -1.09531,-0.99006z" fill="#1e4b54" stroke="#112224" stroke-width="0.5"/><path d="M176.67761,175.9974c0,-0.23419 0,-0.55274 0,-0.69972c0,-0.12471 0.16842,-0.29003 0.23425,-0.29003c0.1285,0 0.50332,0 0.76056,0c0.12449,0 0.25251,0.13205 0.25251,0.23932c0,0.13821 0,0.50013 0,0.75042c0,0.14841 -0.15792,0.25758 -0.26265,0.25758c-0.14653,0 -0.45682,0 -0.69972,0c-0.12005,0 -0.28496,-0.13075 -0.28496,-0.25758z" fill="#1a4148" stroke="#162b2e" stroke-width="0.5"/><path d="M178.66553,176.03638c0,-0.23419 0,-0.55274 0,-0.69972c0,-0.12471 0.16842,-0.29003 0.23425,-0.29003c0.1285,0 0.50332,0 0.76056,0c0.12449,0 0.25251,0.13205 0.25251,0.23932c0,0.13821 0,0.50013 0,0.75042c0,0.14841 -0.15792,0.25758 -0.26265,0.25758c-0.14653,0 -0.45682,0 -0.69972,0c-0.12005,0 -0.28496,-0.13075 -0.28496,-0.25758z" fill="#1a4148" stroke="#162b2e" stroke-width="0.5"/><path d="M176.67761,178.10226c0,-0.23419 0,-0.55274 0,-0.69972c0,-0.12471 0.16842,-0.29003 0.23425,-0.29003c0.1285,0 0.50332,0 0.76056,0c0.12449,0 0.25251,0.13205 0.25251,0.23932c0,0.13821 0,0.50013 0,0.75042c0,0.14841 -0.15792,0.25758 -0.26265,0.25758c-0.14653,0 -0.45682,0 -0.69972,0c-0.12005,0 -0.28496,-0.13075 -0.28496,-0.25758z" fill="#1a4148" stroke="#162b2e" stroke-width="0.5"/><path d="M178.66553,178.14124c0,-0.23419 0,-0.55274 0,-0.69972c0,-0.12471 0.16842,-0.29003 0.23425,-0.29003c0.1285,0 0.50332,0 0.76056,0c0.12449,0 0.25251,0.13205 0.25251,0.23932c0,0.13821 0,0.50013 0,0.75042c0,0.14841 -0.15792,0.25758 -0.26265,0.25758c-0.14653,0 -0.45682,0 -0.69972,0c-0.12005,0 -0.28496,-0.13075 -0.28496,-0.25758z" fill="#1a4148" stroke="#162b2e" stroke-width="0.5"/></g></g></svg>