<svg version="1.1" xmlns="http://www.w3.org/2000/svg" xmlns:xlink="http://www.w3.org/1999/xlink" width="411.66817" height="53.5" viewBox="0,0,411.66817,53.5"><g transform="translate(-114.16592,-153.25)"><g data-paper-data="{&quot;isPaintingLayer&quot;:true}" fill-rule="nonzero" stroke-linecap="butt" stroke-linejoin="miter" stroke-miterlimit="10" stroke-dasharray="" stroke-dashoffset="0" style="mix-blend-mode: normal"><path d="M115.91592,205v-50h408.16817v50z" fill="#735dff" stroke="#403773" stroke-width="3.5"/><text transform="translate(126.93508,197.67984) scale(0.34832,0.34832)" font-size="40" xml:space="preserve" fill="#735dff" fill-rule="nonzero" stroke="#3e356f" stroke-width="2" stroke-linecap="butt" stroke-linejoin="miter" stroke-miterlimit="10" stroke-dasharray="" stroke-dashoffset="0" font-family="Sans Serif" font-weight="normal" text-anchor="start" style="mix-blend-mode: normal"><tspan x="0" dy="0">Super Mold</tspan></text><text transform="translate(226.43508,198.17984) scale(0.34832,0.34832)" font-size="40" xml:space="preserve" fill="#735dff" fill-rule="nonzero" stroke="#3e356f" stroke-width="2" stroke-linecap="butt" stroke-linejoin="miter" stroke-miterlimit="10" stroke-dasharray="" stroke-dashoffset="0" font-family="Sans Serif" font-weight="normal" text-anchor="start" style="mix-blend-mode: normal"><tspan x="0" dy="0">9000 Bears, 180 CPS</tspan></text><path d="M160.66667,181.45472c0,-2.31798 0,-5.47106 0,-6.9258c0,-1.23437 1.66701,-2.8707 2.31864,-2.8707c1.27189,0 4.9818,0 7.52804,0c1.23217,0 2.49931,1.307 2.49931,2.36883c0,1.368 0,4.95029 0,7.42767c0,1.46899 -1.5631,2.5495 -2.59969,2.5495c-1.45037,0 -4.52156,0 -6.9258,0c-1.1883,0 -2.82051,-1.29415 -2.82051,-2.5495z" fill="#1e4b54" stroke="#112224" stroke-width="1.5"/><path d="M162.82471,175.96345c0,-0.60305 0,-1.42336 0,-1.80183c0,-0.32114 0.4337,-0.74685 0.60322,-0.74685c0.3309,0 1.29608,0 1.95851,0c0.32056,0 0.65023,0.34003 0.65023,0.61628c0,0.3559 0,1.28788 0,1.9324c0,0.38218 -0.40666,0.66328 -0.67634,0.66328c-0.37733,0 -1.17634,0 -1.80183,0c-0.30915,0 -0.73379,-0.33669 -0.73379,-0.66328z" fill="#1a4148" stroke="#162b2e" stroke-width="1.5"/><path d="M167.94377,176.06383c0,-0.60305 0,-1.42336 0,-1.80183c0,-0.32114 0.4337,-0.74685 0.60322,-0.74685c0.3309,0 1.29608,0 1.95851,0c0.32056,0 0.65023,0.34003 0.65023,0.61628c0,0.3559 0,1.28788 0,1.9324c0,0.38218 -0.40666,0.66328 -0.67634,0.66328c-0.37733,0 -1.17634,0 -1.80183,0c-0.30915,0 -0.73379,-0.33669 -0.73379,-0.66328z" fill="#1a4148" stroke="#162b2e" stroke-width="1.5"/><path d="M162.82471,181.38364c0,-0.60305 0,-1.42336 0,-1.80183c0,-0.32114 0.4337,-0.74685 0.60322,-0.74685c0.3309,0 1.29608,0 1.95851,0c0.32056,0 0.65023,0.34003 0.65023,0.61628c0,0.3559 0,1.28788 0,1.9324c0,0.38218 -0.40666,0.66328 -0.67634,0.66328c-0.37733,0 -1.17634,0 -1.80183,0c-0.30915,0 -0.73379,-0.33669 -0.73379,-0.66328z" fill="#1a4148" stroke="#162b2e" stroke-width="1.5"/><path d="M167.94377,181.48402c0,-0.60305 0,-1.42336 0,-1.80183c0,-0.32114 0.4337,-0.74685 0.60322,-0.74685c0.3309,0 1.29608,0 1.95851,0c0.32056,0 0.65023,0.34003 0.65023,0.61628c0,0.3559 0,1.28788 0,1.9324c0,0.38218 -0.40666,0.66328 -0.67634,0.66328c-0.37733,0 -1.17634,0 -1.80183,0c-0.30915,0 -0.73379,-0.33669 -0.73379,-0.66328z" fill="#1a4148" stroke="#162b2e" stroke-width="1.5"/><path d="M173.8249,181.61717c0,-2.31798 0,-5.47106 0,-6.9258c0,-1.23437 1.66701,-2.8707 2.31864,-2.8707c1.27189,0 4.9818,0 7.52804,0c1.23217,0 2.49931,1.307 2.49931,2.36883c0,1.368 0,4.95029 0,7.42767c0,1.46899 -1.5631,2.5495 -2.59969,2.5495c-1.45037,0 -4.52156,0 -6.9258,0c-1.1883,0 -2.82051,-1.29415 -2.82051,-2.5495z" fill="#1e4b54" stroke="#112224" stroke-width="1.5"/><path d="M175.98294,176.1259c0,-0.60305 0,-1.42336 0,-1.80183c0,-0.32114 0.4337,-0.74685 0.60322,-0.74685c0.3309,0 1.29608,0 1.95851,0c0.32056,0 0.65023,0.34003 0.65023,0.61628c0,0.3559 0,1.28788 0,1.9324c0,0.38218 -0.40666,0.66328 -0.67634,0.66328c-0.37733,0 -1.17634,0 -1.80183,0c-0.30915,0 -0.73379,-0.33669 -0.73379,-0.66328z" fill="#1a4148" stroke="#162b2e" stroke-width="1.5"/><path d="M181.102,176.22627c0,-0.60305 0,-1.42336 0,-1.80183c0,-0.32114 0.4337,-0.74685 0.60322,-0.74685c0.3309,0 1.29608,0 1.95851,0c0.32056,0 0.65023,0.34003 0.65023,0.61628c0,0.3559 0,1.28788 0,1.9324c0,0.38218 -0.40666,0.66328 -0.67634,0.66328c-0.37733,0 -1.17634,0 -1.80183,0c-0.30915,0 -0.73379,-0.33669 -0.73379,-0.66328z" fill="#1a4148" stroke="#162b2e" stroke-width="1.5"/><path d="M175.98294,181.54609c0,-0.60305 0,-1.42336 0,-1.80183c0,-0.32114 0.4337,-0.74685 0.60322,-0.74685c0.3309,0 1.29608,0 1.95851,0c0.32056,0 0.65023,0.34003 0.65023,0.61628c0,0.3559 0,1.28788 0,1.9324c0,0.38218 -0.40666,0.66328 -0.67634,0.66328c-0.37733,0 -1.17634,0 -1.80183,0c-0.30915,0 -0.73379,-0.33669 -0.73379,-0.66328z" fill="#1a4148" stroke="#162b2e" stroke-width="1.5"/><path d="M181.102,181.64646c0,-0.60305 0,-1.42336 0,-1.80183c0,-0.32114 0.4337,-0.74685 0.60322,-0.74685c0.3309,0 1.29608,0 1.95851,0c0.32056,0 0.65023,0.34003 0.65023,0.61628c0,0.3559 0,1.28788 0,1.9324c0,0.38218 -0.40666,0.66328 -0.67634,0.66328c-0.37733,0 -1.17634,0 -1.80183,0c-0.30915,0 -0.73379,-0.33669 -0.73379,-0.66328z" fill="#1a4148" stroke="#162b2e" stroke-width="1.5"/><path d="M160.82912,168.45894c0,-2.31798 0,-5.47106 0,-6.9258c0,-1.23437 1.66701,-2.8707 2.31864,-2.8707c1.27189,0 4.9818,0 7.52804,0c1.23217,0 2.49931,1.307 2.49931,2.36883c0,1.368 0,4.95029 0,7.42767c0,1.46899 -1.5631,2.5495 -2.59969,2.5495c-1.45037,0 -4.52156,0 -6.9258,0c-1.1883,0 -2.82051,-1.29415 -2.82051,-2.5495z" fill="#1e4b54" stroke="#112224" stroke-width="1.5"/><path d="M162.98715,162.96767c0,-0.60305 0,-1.42336 0,-1.80183c0,-0.32114 0.4337,-0.74685 0.60322,-0.74685c0.3309,0 1.29608,0 1.95851,0c0.32056,0 0.65023,0.34003 0.65023,0.61628c0,0.3559 0,1.28788 0,1.9324c0,0.38218 -0.40666,0.66328 -0.67634,0.66328c-0.37733,0 -1.17634,0 -1.80183,0c-0.30915,0 -0.73379,-0.33669 -0.73379,-0.66328z" fill="#1a4148" stroke="#162b2e" stroke-width="1.5"/><path d="M168.10622,163.06804c0,-0.60305 0,-1.42336 0,-1.80183c0,-0.32114 0.4337,-0.74685 0.60322,-0.74685c0.3309,0 1.29608,0 1.95851,0c0.32056,0 0.65023,0.34003 0.65023,0.61628c0,0.3559 0,1.28788 0,1.9324c0,0.38218 -0.40666,0.66328 -0.67634,0.66328c-0.37733,0 -1.17634,0 -1.80183,0c-0.30915,0 -0.73379,-0.33669 -0.73379,-0.66328z" fill="#1a4148" stroke="#162b2e" stroke-width="1.5"/><path d="M162.98715,168.38786c0,-0.60305 0,-1.42336 0,-1.80183c0,-0.32114 0.4337,-0.74685 0.60322,-0.74685c0.3309,0 1.29608,0 1.95851,0c0.32056,0 0.65023,0.34003 0.65023,0.61628c0,0.3559 0,1.28788 0,1.9324c0,0.38218 -0.40666,0.66328 -0.67634,0.66328c-0.37733,0 -1.17634,0 -1.80183,0c-0.30915,0 -0.73379,-0.33669 -0.73379,-0.66328z" fill="#1a4148" stroke="#162b2e" stroke-width="1.5"/><path d="M168.10622,168.48824c0,-0.60305 0,-1.42336 0,-1.80183c0,-0.32114 0.4337,-0.74685 0.60322,-0.74685c0.3309,0 1.29608,0 1.95851,0c0.32056,0 0.65023,0.34003 0.65023,0.61628c0,0.3559 0,1.28788 0,1.9324c0,0.38218 -0.40666,0.66328 -0.67634,0.66328c-0.37733,0 -1.17634,0 -1.80183,0c-0.30915,0 -0.73379,-0.33669 -0.73379,-0.66328z" fill="#1a4148" stroke="#162b2e" stroke-width="1.5"/><path d="M173.98734,168.62139c0,-2.31798 0,-5.47106 0,-6.9258c0,-1.23437 1.66701,-2.8707 2.31864,-2.8707c1.27189,0 4.9818,0 7.52804,0c1.23217,0 2.49931,1.307 2.49931,2.36883c0,1.368 0,4.95029 0,7.42767c0,1.46899 -1.5631,2.5495 -2.59969,2.5495c-1.45037,0 -4.52156,0 -6.9258,0c-1.1883,0 -2.82051,-1.29415 -2.82051,-2.5495z" fill="#1e4b54" stroke="#112224" stroke-width="1.5"/><path d="M176.14538,163.13012c0,-0.60305 0,-1.42336 0,-1.80183c0,-0.32114 0.4337,-0.74685 0.60322,-0.74685c0.3309,0 1.29608,0 1.95851,0c0.32056,0 0.65023,0.34003 0.65023,0.61628c0,0.3559 0,1.28788 0,1.9324c0,0.38218 -0.40666,0.66328 -0.67634,0.66328c-0.37733,0 -1.17634,0 -1.80183,0c-0.30915,0 -0.73379,-0.33669 -0.73379,-0.66328z" fill="#1a4148" stroke="#162b2e" stroke-width="1.5"/><path d="M181.26445,163.23049c0,-0.60305 0,-1.42336 0,-1.80183c0,-0.32114 0.4337,-0.74685 0.60322,-0.74685c0.3309,0 1.29608,0 1.95851,0c0.32056,0 0.65023,0.34003 0.65023,0.61628c0,0.3559 0,1.28788 0,1.9324c0,0.38218 -0.40666,0.66328 -0.67634,0.66328c-0.37733,0 -1.17634,0 -1.80183,0c-0.30915,0 -0.73379,-0.33669 -0.73379,-0.66328z" fill="#1a4148" stroke="#162b2e" stroke-width="1.5"/><path d="M176.14538,168.55031c0,-0.60305 0,-1.42336 0,-1.80183c0,-0.32114 0.4337,-0.74685 0.60322,-0.74685c0.3309,0 1.29608,0 1.95851,0c0.32056,0 0.65023,0.34003 0.65023,0.61628c0,0.3559 0,1.28788 0,1.9324c0,0.38218 -0.40666,0.66328 -0.67634,0.66328c-0.37733,0 -1.17634,0 -1.80183,0c-0.30915,0 -0.73379,-0.33669 -0.73379,-0.66328z" fill="#1a4148" stroke="#162b2e" stroke-width="1.5"/><path d="M181.26445,168.65068c0,-0.60305 0,-1.42336 0,-1.80183c0,-0.32114 0.4337,-0.74685 0.60322,-0.74685c0.3309,0 1.29608,0 1.95851,0c0.32056,0 0.65023,0.34003 0.65023,0.61628c0,0.3559 0,1.28788 0,1.9324c0,0.38218 -0.40666,0.66328 -0.67634,0.66328c-0.37733,0 -1.17634,0 -1.80183,0c-0.30915,0 -0.73379,-0.33669 -0.73379,-0.66328z" fill="#1a4148" stroke="#162b2e" stroke-width="1.5"/></g></g></svg>