<svg version="1.1" xmlns="http://www.w3.org/2000/svg" xmlns:xlink="http://www.w3.org/1999/xlink" width="411.66817" height="53.5" viewBox="0,0,411.66817,53.5"><g transform="translate(-114.16592,-153.25)"><g data-paper-data="{&quot;isPaintingLayer&quot;:true}" fill-rule="nonzero" stroke-linecap="butt" stroke-linejoin="miter" stroke-miterlimit="10" stroke-dasharray="" stroke-dashoffset="0" style="mix-blend-mode: normal"><path d="M115.91592,205v-50h408.16817v50z" fill="#735dff" stroke="#403773" stroke-width="3.5"/><text transform="translate(226.43508,198.17984) scale(0.34832,0.34832)" font-size="40" xml:space="preserve" fill="#735dff" fill-rule="nonzero" stroke="#3e356f" stroke-width="2" stroke-linecap="butt" stroke-linejoin="miter" stroke-miterlimit="10" stroke-dasharray="" stroke-dashoffset="0" font-family="Sans Serif" font-weight="normal" text-anchor="start" style="mix-blend-mode: normal"><tspan x="0" dy="0">26M Bears, 512k CPS</tspan></text><text transform="translate(141.93508,197.14941) scale(0.30919,0.30919)" font-size="40" xml:space="preserve" fill="#735dff" fill-rule="nonzero" stroke="#3e356f" stroke-width="2" stroke-linecap="butt" stroke-linejoin="miter" stroke-miterlimit="10" stroke-dasharray="" stroke-dashoffset="0" font-family="Sans Serif" font-weight="normal" text-anchor="start" style="mix-blend-mode: normal"><tspan x="0" dy="0">Mega Boiler</tspan></text><path d="M164.01624,183.91667c0,0 0,-1.15418 0,-2.11122c0,-2.03342 -0.40779,-6.89768 2.63457,-9.38833c1.33798,-1.09535 2.63322,-1.45841 3.56172,-1.38127c1.46812,0.12197 1.95022,0.2689 3.38073,1.73729c2.55349,2.62111 2.06493,6.83176 2.06493,8.8899c0,1.00837 0,2.25362 0,2.25362z" fill="#919191" stroke="#2e2e2e" stroke-width="1.5"/><path d="M165.67474,183.76516c0,0 0,-0.82397 0,-1.50721c0,-1.45167 -0.29113,-4.92429 1.88084,-6.70238c0.95519,-0.78197 1.87987,-1.04117 2.54273,-0.98609c1.0481,0.08708 1.39227,0.19197 2.41352,1.24026c1.82295,1.87123 1.47417,4.87724 1.47417,6.34655c0,0.71988 0,1.60888 0,1.60888z" fill="#4b4b4b" stroke="#2e2e2e" stroke-width="1.5"/><path d="M168.74224,183.06577c-1.201,-0.75239 -0.67645,-2.27499 -0.67645,-2.27499l0.67645,-1.32085l0.44886,1.34362l0.59096,-1.40763l0.54677,1.64846l0.76316,-1.65565l0.62118,1.71336c0,0 0.12269,1.46353 -0.51438,1.88247c-0.39284,0.25833 -0.81396,0.43113 -1.33389,0.41956c-0.57228,-0.01273 -0.66226,-0.05992 -1.12267,-0.34835z" fill="#ff3c3c" stroke="#ff0000" stroke-width="1.5"/><path d="M171.1988,183.17258c-1.201,-0.75239 -0.67645,-2.27499 -0.67645,-2.27499l0.67645,-1.32085l0.44886,1.34362l0.59096,-1.40763l0.54677,1.64846l0.76316,-1.65565l0.62118,1.71336c0,0 0.12269,1.46353 -0.51438,1.88247c-0.39284,0.25833 -0.81396,0.43113 -1.33389,0.41956c-0.57228,-0.01273 -0.66226,-0.05992 -1.12267,-0.34835z" fill="#ff3c3c" stroke="#ff0000" stroke-width="1.5"/><path d="M166.35689,183.17258c-1.201,-0.75239 -0.67645,-2.27499 -0.67645,-2.27499l0.67645,-1.32085l0.44886,1.34362l0.59096,-1.40763l0.54677,1.64846l0.76316,-1.65565l0.62118,1.71336c0,0 0.12269,1.46353 -0.51438,1.88247c-0.39284,0.25833 -0.81396,0.43113 -1.33389,0.41956c-0.57228,-0.01273 -0.66226,-0.05992 -1.12267,-0.34835z" fill="#ff3c3c" stroke="#ff0000" stroke-width="1.5"/><path d="M177.01624,183.91667c0,0 0,-1.15418 0,-2.11122c0,-2.03342 -0.40779,-6.89768 2.63458,-9.38833c1.33798,-1.09535 2.63322,-1.45841 3.56172,-1.38127c1.46812,0.12197 1.95021,0.2689 3.38072,1.73729c2.55349,2.62111 2.06494,6.83176 2.06494,8.88989c0,1.00838 0,2.25362 0,2.25362z" fill="#919191" stroke="#2e2e2e" stroke-width="1.5"/><path d="M178.67474,183.76516c0,0 0,-0.82396 0,-1.5072c0,-1.45167 -0.29112,-4.9243 1.88084,-6.70238c0.95519,-0.78197 1.87987,-1.04116 2.54273,-0.98609c1.0481,0.08707 1.39227,0.19196 2.41352,1.24026c1.82295,1.87123 1.47416,4.87724 1.47416,6.34655c0,0.71988 0,1.60888 0,1.60888z" fill="#4b4b4b" stroke="#2e2e2e" stroke-width="1.5"/><path d="M181.74225,183.06578c-1.201,-0.75239 -0.67645,-2.27499 -0.67645,-2.27499l0.67645,-1.32084l0.44886,1.34362l0.59096,-1.40763l0.54677,1.64845l0.76317,-1.65564l0.62118,1.71337c0,0 0.12269,1.46354 -0.51438,1.88246c-0.39284,0.25833 -0.81395,0.43113 -1.33389,0.41956c-0.57228,-0.01273 -0.66226,-0.05992 -1.12267,-0.34835z" fill="#ff3c3c" stroke="#ff0000" stroke-width="1.5"/><path d="M184.1988,183.17259c-1.201,-0.75239 -0.67645,-2.27499 -0.67645,-2.27499l0.67645,-1.32084l0.44886,1.34362l0.59096,-1.40763l0.54677,1.64845l0.76316,-1.65564l0.62118,1.71337c0,0 0.12269,1.46354 -0.51438,1.88246c-0.39284,0.25833 -0.81395,0.43113 -1.33389,0.41956c-0.57228,-0.01273 -0.66226,-0.05992 -1.12267,-0.34835z" fill="#ff3c3c" stroke="#ff0000" stroke-width="1.5"/><path d="M179.35689,183.17259c-1.201,-0.75239 -0.67645,-2.27499 -0.67645,-2.27499l0.67645,-1.32084l0.44886,1.34362l0.59096,-1.40763l0.54677,1.64845l0.76316,-1.65564l0.62118,1.71337c0,0 0.12269,1.46354 -0.51438,1.88246c-0.39284,0.25833 -0.81395,0.43113 -1.33389,0.41956c-0.57228,-0.01273 -0.66226,-0.05992 -1.12267,-0.34835z" fill="#ff3c3c" stroke="#ff0000" stroke-width="1.5"/><path d="M177.01624,174.41667c0,0 0,-1.15418 0,-2.11122c0,-2.03342 -0.40779,-6.89768 2.63458,-9.38833c1.33798,-1.09535 2.63322,-1.45841 3.56172,-1.38127c1.46812,0.12197 1.95021,0.2689 3.38072,1.73729c2.55349,2.62111 2.06494,6.83176 2.06494,8.88989c0,1.00838 0,2.25362 0,2.25362z" fill="#919191" stroke="#2e2e2e" stroke-width="1.5"/><path d="M178.67474,174.26516c0,0 0,-0.82396 0,-1.5072c0,-1.45167 -0.29112,-4.9243 1.88084,-6.70238c0.95519,-0.78197 1.87987,-1.04116 2.54273,-0.98609c1.0481,0.08707 1.39227,0.19196 2.41352,1.24026c1.82295,1.87123 1.47416,4.87724 1.47416,6.34655c0,0.71988 0,1.60888 0,1.60888z" fill="#4b4b4b" stroke="#2e2e2e" stroke-width="1.5"/><path d="M181.74225,173.56577c-1.201,-0.75239 -0.67645,-2.27499 -0.67645,-2.27499l0.67645,-1.32084l0.44886,1.34362l0.59096,-1.40763l0.54677,1.64845l0.76317,-1.65564l0.62118,1.71337c0,0 0.12269,1.46354 -0.51438,1.88246c-0.39284,0.25833 -0.81395,0.43113 -1.33389,0.41956c-0.57228,-0.01273 -0.66226,-0.05992 -1.12267,-0.34835z" fill="#ff3c3c" stroke="#ff0000" stroke-width="1.5"/><path d="M184.1988,173.67258c-1.201,-0.75239 -0.67645,-2.27499 -0.67645,-2.27499l0.67645,-1.32084l0.44886,1.34362l0.59096,-1.40763l0.54677,1.64845l0.76316,-1.65564l0.62118,1.71337c0,0 0.12269,1.46354 -0.51438,1.88246c-0.39284,0.25833 -0.81395,0.43113 -1.33389,0.41956c-0.57228,-0.01273 -0.66226,-0.05992 -1.12267,-0.34835z" fill="#ff3c3c" stroke="#ff0000" stroke-width="1.5"/><path d="M179.35689,173.67258c-1.201,-0.75239 -0.67645,-2.27499 -0.67645,-2.27499l0.67645,-1.32084l0.44886,1.34362l0.59096,-1.40763l0.54677,1.64845l0.76316,-1.65564l0.62118,1.71337c0,0 0.12269,1.46354 -0.51438,1.88246c-0.39284,0.25833 -0.81395,0.43113 -1.33389,0.41956c-0.57228,-0.01273 -0.66226,-0.05992 -1.12267,-0.34835z" fill="#ff3c3c" stroke="#ff0000" stroke-width="1.5"/><path d="M164.26624,174.41667c0,0 0,-1.15418 0,-2.11122c0,-2.03342 -0.40779,-6.89768 2.63458,-9.38833c1.33798,-1.09535 2.63322,-1.45841 3.56172,-1.38127c1.46812,0.12197 1.95021,0.2689 3.38072,1.73729c2.55349,2.62111 2.06494,6.83176 2.06494,8.88989c0,1.00838 0,2.25362 0,2.25362z" fill="#919191" stroke="#2e2e2e" stroke-width="1.5"/><path d="M165.92474,174.26516c0,0 0,-0.82396 0,-1.5072c0,-1.45167 -0.29112,-4.9243 1.88084,-6.70238c0.95519,-0.78197 1.87987,-1.04116 2.54273,-0.98609c1.0481,0.08707 1.39227,0.19196 2.41352,1.24026c1.82295,1.87123 1.47416,4.87724 1.47416,6.34655c0,0.71988 0,1.60888 0,1.60888z" fill="#4b4b4b" stroke="#2e2e2e" stroke-width="1.5"/><path d="M168.99225,173.56577c-1.201,-0.75239 -0.67645,-2.27499 -0.67645,-2.27499l0.67645,-1.32084l0.44886,1.34362l0.59096,-1.40763l0.54677,1.64845l0.76317,-1.65564l0.62118,1.71337c0,0 0.12269,1.46354 -0.51438,1.88246c-0.39284,0.25833 -0.81395,0.43113 -1.33389,0.41956c-0.57228,-0.01273 -0.66226,-0.05992 -1.12267,-0.34835z" fill="#ff3c3c" stroke="#ff0000" stroke-width="1.5"/><path d="M171.4488,173.67258c-1.201,-0.75239 -0.67645,-2.27499 -0.67645,-2.27499l0.67645,-1.32084l0.44886,1.34362l0.59096,-1.40763l0.54677,1.64845l0.76316,-1.65564l0.62118,1.71337c0,0 0.12269,1.46354 -0.51438,1.88246c-0.39284,0.25833 -0.81395,0.43113 -1.33389,0.41956c-0.57228,-0.01273 -0.66226,-0.05992 -1.12267,-0.34835z" fill="#ff3c3c" stroke="#ff0000" stroke-width="1.5"/><path d="M166.60689,173.67258c-1.201,-0.75239 -0.67645,-2.27499 -0.67645,-2.27499l0.67645,-1.32084l0.44886,1.34362l0.59096,-1.40763l0.54677,1.64845l0.76316,-1.65564l0.62118,1.71337c0,0 0.12269,1.46354 -0.51438,1.88246c-0.39284,0.25833 -0.81395,0.43113 -1.33389,0.41956c-0.57228,-0.01273 -0.66226,-0.05992 -1.12267,-0.34835z" fill="#ff3c3c" stroke="#ff0000" stroke-width="1.5"/></g></g></svg>