<svg version="1.1" xmlns="http://www.w3.org/2000/svg" xmlns:xlink="http://www.w3.org/1999/xlink" width="411.66817" height="53.5" viewBox="0,0,411.66817,53.5"><g transform="translate(-114.16592,-153.25)"><g data-paper-data="{&quot;isPaintingLayer&quot;:true}" fill-rule="nonzero" stroke-linecap="butt" stroke-linejoin="miter" stroke-miterlimit="10" stroke-dasharray="" stroke-dashoffset="0" style="mix-blend-mode: normal"><path d="M115.91592,205v-50h408.16817v50z" fill="#735dff" stroke="#403773" stroke-width="3.5"/><text transform="translate(126.93508,197.67984) scale(0.34832,0.34832)" font-size="40" xml:space="preserve" fill="#735dff" fill-rule="nonzero" stroke="#3e356f" stroke-width="2" stroke-linecap="butt" stroke-linejoin="miter" stroke-miterlimit="10" stroke-dasharray="" stroke-dashoffset="0" font-family="Sans Serif" font-weight="normal" text-anchor="start" style="mix-blend-mode: normal"><tspan x="0" dy="0">Mega Printer</tspan></text><text transform="translate(226.43508,198.17984) scale(0.34832,0.34832)" font-size="40" xml:space="preserve" fill="#735dff" fill-rule="nonzero" stroke="#3e356f" stroke-width="2" stroke-linecap="butt" stroke-linejoin="miter" stroke-miterlimit="10" stroke-dasharray="" stroke-dashoffset="0" font-family="Sans Serif" font-weight="normal" text-anchor="start" style="mix-blend-mode: normal"><tspan x="0" dy="0">3.25B Bears, 65M CPS</tspan></text><path d="M156.1,183.12267c0,0 0,-13.586 0,-16.53918c0,-1.08031 1.28366,-2.21325 2.46791,-2.21325c2.25468,0 10.11284,0 14.0296,0c1.36779,0 2.25493,1.55065 2.25493,2.90779c0,3.168 0,15.84465 0,15.84465l-5.44966,0.30197c0,0 1.20131,-16.24299 -0.57837,-16.26765c-1.92788,-0.02671 -6.00296,-0.14753 -7.20054,-0.14753c-0.93908,0 -1.23455,16.20866 -1.23455,16.20866z" fill="#5a5a5a" stroke="#1d1d1d" stroke-width="1.5"/><path d="M163.42965,168.11145v-8.33441h4.0283v8.33441z" fill="#5a5a5a" stroke="#1d1d1d" stroke-width="1.5"/><path d="M160.79511,181.5062c0,-0.818 0,-1.9307 0,-2.44407c0,-0.4356 0.58828,-1.01305 0.81823,-1.01305c0.44884,0 1.75805,0 2.6566,0c0.43483,0 0.88199,0.46124 0.88199,0.83594c0,0.48276 0,1.74693 0,2.62118c0,0.5184 -0.55161,0.8997 -0.91742,0.8997c-0.51183,0 -1.59563,0 -2.44407,0c-0.41934,0 -0.99534,-0.4567 -0.99534,-0.8997z" fill="#1e4b54" stroke="#112224" stroke-width="0.5"/><path d="M161.55667,179.56836c0,-0.21282 0,-0.50229 0,-0.63586c0,-0.11333 0.15305,-0.26356 0.21287,-0.26356c0.11677,0 0.45738,0 0.69115,0c0.11313,0 0.22946,0.12 0.22946,0.21748c0,0.1256 0,0.45448 0,0.68193c0,0.13486 -0.14351,0.23407 -0.23868,0.23407c-0.13316,0 -0.41513,0 -0.63586,0c-0.10909,0 -0.25895,-0.11882 -0.25895,-0.23407z" fill="#1a4148" stroke="#162b2e" stroke-width="0.5"/><path d="M163.36315,179.60378c0,-0.21282 0,-0.50229 0,-0.63586c0,-0.11333 0.15305,-0.26356 0.21287,-0.26356c0.11677,0 0.45738,0 0.69115,0c0.11313,0 0.22946,0.12 0.22946,0.21748c0,0.1256 0,0.45448 0,0.68193c0,0.13486 -0.14351,0.23407 -0.23868,0.23407c-0.13316,0 -0.41513,0 -0.63586,0c-0.10909,0 -0.25895,-0.11882 -0.25895,-0.23407z" fill="#1a4148" stroke="#162b2e" stroke-width="0.5"/><path d="M161.55667,181.48112c0,-0.21282 0,-0.50229 0,-0.63586c0,-0.11333 0.15305,-0.26356 0.21287,-0.26356c0.11677,0 0.45738,0 0.69115,0c0.11313,0 0.22946,0.12 0.22946,0.21748c0,0.1256 0,0.45448 0,0.68193c0,0.13486 -0.14351,0.23407 -0.23868,0.23407c-0.13316,0 -0.41513,0 -0.63586,0c-0.10909,0 -0.25895,-0.11882 -0.25895,-0.23407z" fill="#1a4148" stroke="#162b2e" stroke-width="0.5"/><path d="M163.36315,181.51654c0,-0.21282 0,-0.50229 0,-0.63586c0,-0.11333 0.15305,-0.26356 0.21287,-0.26356c0.11677,0 0.45738,0 0.69115,0c0.11313,0 0.22946,0.12 0.22946,0.21748c0,0.1256 0,0.45448 0,0.68193c0,0.13486 -0.14351,0.23407 -0.23868,0.23407c-0.13316,0 -0.41513,0 -0.63586,0c-0.10909,0 -0.25895,-0.11882 -0.25895,-0.23407z" fill="#1a4148" stroke="#162b2e" stroke-width="0.5"/><path d="M165.43857,181.56353c0,-0.818 0,-1.9307 0,-2.44407c0,-0.4356 0.58828,-1.01305 0.81823,-1.01305c0.44884,0 1.75805,0 2.6566,0c0.43483,0 0.88199,0.46124 0.88199,0.83594c0,0.48276 0,1.74693 0,2.62118c0,0.5184 -0.55161,0.8997 -0.91742,0.8997c-0.51183,0 -1.59563,0 -2.44407,0c-0.41934,0 -0.99534,-0.4567 -0.99534,-0.8997z" fill="#1e4b54" stroke="#112224" stroke-width="0.5"/><path d="M166.00013,179.62568c0,-0.21282 0,-0.50229 0,-0.63586c0,-0.11333 0.15305,-0.26356 0.21287,-0.26356c0.11677,0 0.45738,0 0.69115,0c0.11313,0 0.22946,0.12 0.22946,0.21748c0,0.1256 0,0.45448 0,0.68193c0,0.13486 -0.14351,0.23407 -0.23868,0.23407c-0.13316,0 -0.41513,0 -0.63586,0c-0.10909,0 -0.25895,-0.11882 -0.25895,-0.23407z" fill="#1a4148" stroke="#162b2e" stroke-width="0.5"/><path d="M167.80662,179.66111c0,-0.21282 0,-0.50229 0,-0.63586c0,-0.11333 0.15305,-0.26356 0.21287,-0.26356c0.11677,0 0.45738,0 0.69115,0c0.11313,0 0.22946,0.12 0.22946,0.21748c0,0.1256 0,0.45448 0,0.68193c0,0.13486 -0.14351,0.23407 -0.23868,0.23407c-0.13316,0 -0.41513,0 -0.63586,0c-0.10909,0 -0.25895,-0.11882 -0.25895,-0.23407z" fill="#1a4148" stroke="#162b2e" stroke-width="0.5"/><path d="M166.00013,181.53844c0,-0.21282 0,-0.50229 0,-0.63586c0,-0.11333 0.15305,-0.26356 0.21287,-0.26356c0.11677,0 0.45738,0 0.69115,0c0.11313,0 0.22946,0.12 0.22946,0.21748c0,0.1256 0,0.45448 0,0.68193c0,0.13486 -0.14351,0.23407 -0.23868,0.23407c-0.13316,0 -0.41513,0 -0.63586,0c-0.10909,0 -0.25895,-0.11882 -0.25895,-0.23407z" fill="#1a4148" stroke="#162b2e" stroke-width="0.5"/><path d="M167.80662,181.57386c0,-0.21282 0,-0.50229 0,-0.63586c0,-0.11333 0.15305,-0.26356 0.21287,-0.26356c0.11677,0 0.45738,0 0.69115,0c0.11313,0 0.22946,0.12 0.22946,0.21748c0,0.1256 0,0.45448 0,0.68193c0,0.13486 -0.14351,0.23407 -0.23868,0.23407c-0.13316,0 -0.41513,0 -0.63586,0c-0.10909,0 -0.25895,-0.11882 -0.25895,-0.23407z" fill="#1a4148" stroke="#162b2e" stroke-width="0.5"/><path d="M160.85243,176.92006c0,-0.818 0,-1.9307 0,-2.44407c0,-0.4356 0.58828,-1.01305 0.81823,-1.01305c0.44884,0 1.75805,0 2.6566,0c0.43483,0 0.88199,0.46124 0.88199,0.83594c0,0.48276 0,1.74693 0,2.62118c0,0.5184 -0.55161,0.8997 -0.91742,0.8997c-0.51183,0 -1.59563,0 -2.44407,0c-0.41934,0 -0.99534,-0.4567 -0.99534,-0.8997z" fill="#1e4b54" stroke="#112224" stroke-width="0.5"/><path d="M161.61399,174.98222c0,-0.21282 0,-0.50229 0,-0.63586c0,-0.11333 0.15305,-0.26356 0.21287,-0.26356c0.11677,0 0.45738,0 0.69115,0c0.11313,0 0.22946,0.12 0.22946,0.21748c0,0.1256 0,0.45448 0,0.68193c0,0.13486 -0.14351,0.23407 -0.23868,0.23407c-0.13316,0 -0.41513,0 -0.63586,0c-0.10909,0 -0.25895,-0.11882 -0.25895,-0.23407z" fill="#1a4148" stroke="#162b2e" stroke-width="0.5"/><path d="M163.42048,175.01765c0,-0.21282 0,-0.50229 0,-0.63586c0,-0.11333 0.15305,-0.26356 0.21287,-0.26356c0.11677,0 0.45738,0 0.69115,0c0.11313,0 0.22946,0.12 0.22946,0.21748c0,0.1256 0,0.45448 0,0.68193c0,0.13486 -0.14351,0.23407 -0.23868,0.23407c-0.13316,0 -0.41513,0 -0.63586,0c-0.10909,0 -0.25895,-0.11882 -0.25895,-0.23407z" fill="#1a4148" stroke="#162b2e" stroke-width="0.5"/><path d="M161.61399,176.89498c0,-0.21282 0,-0.50229 0,-0.63586c0,-0.11333 0.15305,-0.26356 0.21287,-0.26356c0.11677,0 0.45738,0 0.69115,0c0.11313,0 0.22946,0.12 0.22946,0.21748c0,0.1256 0,0.45448 0,0.68193c0,0.13486 -0.14351,0.23407 -0.23868,0.23407c-0.13316,0 -0.41513,0 -0.63586,0c-0.10909,0 -0.25895,-0.11882 -0.25895,-0.23407z" fill="#1a4148" stroke="#162b2e" stroke-width="0.5"/><path d="M163.42048,176.9304c0,-0.21282 0,-0.50229 0,-0.63586c0,-0.11333 0.15305,-0.26356 0.21287,-0.26356c0.11677,0 0.45738,0 0.69115,0c0.11313,0 0.22946,0.12 0.22946,0.21748c0,0.1256 0,0.45448 0,0.68193c0,0.13486 -0.14351,0.23407 -0.23868,0.23407c-0.13316,0 -0.41513,0 -0.63586,0c-0.10909,0 -0.25895,-0.11882 -0.25895,-0.23407z" fill="#1a4148" stroke="#162b2e" stroke-width="0.5"/><path d="M165.49589,176.97739c0,-0.818 0,-1.9307 0,-2.44407c0,-0.4356 0.58828,-1.01305 0.81823,-1.01305c0.44884,0 1.75805,0 2.6566,0c0.43483,0 0.88199,0.46124 0.88199,0.83594c0,0.48276 0,1.74693 0,2.62118c0,0.5184 -0.55161,0.8997 -0.91742,0.8997c-0.51183,0 -1.59563,0 -2.44407,0c-0.41934,0 -0.99534,-0.4567 -0.99534,-0.8997z" fill="#1e4b54" stroke="#112224" stroke-width="0.5"/><path d="M166.25745,175.03955c0,-0.21282 0,-0.50229 0,-0.63586c0,-0.11333 0.15305,-0.26356 0.21287,-0.26356c0.11677,0 0.45738,0 0.69115,0c0.11313,0 0.22946,0.12 0.22946,0.21748c0,0.1256 0,0.45448 0,0.68193c0,0.13486 -0.14351,0.23407 -0.23868,0.23407c-0.13316,0 -0.41513,0 -0.63586,0c-0.10909,0 -0.25895,-0.11882 -0.25895,-0.23407z" fill="#1a4148" stroke="#162b2e" stroke-width="0.5"/><path d="M168.06394,175.07497c0,-0.21282 0,-0.50229 0,-0.63586c0,-0.11333 0.15305,-0.26356 0.21287,-0.26356c0.11677,0 0.45738,0 0.69115,0c0.11313,0 0.22946,0.12 0.22946,0.21748c0,0.1256 0,0.45448 0,0.68193c0,0.13486 -0.14351,0.23407 -0.23868,0.23407c-0.13316,0 -0.41513,0 -0.63586,0c-0.10909,0 -0.25895,-0.11882 -0.25895,-0.23407z" fill="#1a4148" stroke="#162b2e" stroke-width="0.5"/><path d="M166.25745,176.9523c0,-0.21282 0,-0.50229 0,-0.63586c0,-0.11333 0.15305,-0.26356 0.21287,-0.26356c0.11677,0 0.45738,0 0.69115,0c0.11313,0 0.22946,0.12 0.22946,0.21748c0,0.1256 0,0.45448 0,0.68193c0,0.13486 -0.14351,0.23407 -0.23868,0.23407c-0.13316,0 -0.41513,0 -0.63586,0c-0.10909,0 -0.25895,-0.11882 -0.25895,-0.23407z" fill="#1a4148" stroke="#162b2e" stroke-width="0.5"/><path d="M168.06394,176.98772c0,-0.21282 0,-0.50229 0,-0.63586c0,-0.11333 0.15305,-0.26356 0.21287,-0.26356c0.11677,0 0.45738,0 0.69115,0c0.11313,0 0.22946,0.12 0.22946,0.21748c0,0.1256 0,0.45448 0,0.68193c0,0.13486 -0.14351,0.23407 -0.23868,0.23407c-0.13316,0 -0.41513,0 -0.63586,0c-0.10909,0 -0.25895,-0.11882 -0.25895,-0.23407z" fill="#1a4148" stroke="#162b2e" stroke-width="0.5"/><path d="M175.18338,183.12267c0,0 0,-13.586 0,-16.53918c0,-1.08031 1.28366,-2.21325 2.46791,-2.21325c2.25468,0 10.11284,0 14.0296,0c1.36779,0 2.25493,1.55065 2.25493,2.90779c0,3.168 0,15.84465 0,15.84465l-5.44966,0.30197c0,0 1.20131,-16.24299 -0.57837,-16.26765c-1.92788,-0.02671 -6.00296,-0.14753 -7.20054,-0.14753c-0.93908,0 -1.23455,16.20866 -1.23455,16.20866z" fill="#5a5a5a" stroke="#1d1d1d" stroke-width="1.5"/><path d="M182.51303,168.11145v-8.33441h4.0283v8.33441z" fill="#5a5a5a" stroke="#1d1d1d" stroke-width="1.5"/><path d="M179.87849,181.5062c0,-0.818 0,-1.9307 0,-2.44407c0,-0.4356 0.58828,-1.01305 0.81823,-1.01305c0.44884,0 1.75805,0 2.6566,0c0.43483,0 0.88199,0.46124 0.88199,0.83594c0,0.48276 0,1.74693 0,2.62118c0,0.5184 -0.55161,0.8997 -0.91742,0.8997c-0.51183,0 -1.59563,0 -2.44407,0c-0.41934,0 -0.99534,-0.4567 -0.99534,-0.8997z" fill="#1e4b54" stroke="#112224" stroke-width="0.5"/><path d="M180.64005,179.56836c0,-0.21282 0,-0.50229 0,-0.63586c0,-0.11333 0.15305,-0.26356 0.21287,-0.26356c0.11677,0 0.45738,0 0.69115,0c0.11313,0 0.22946,0.12 0.22946,0.21748c0,0.1256 0,0.45448 0,0.68193c0,0.13486 -0.14351,0.23407 -0.23868,0.23407c-0.13316,0 -0.41513,0 -0.63586,0c-0.10909,0 -0.25895,-0.11882 -0.25895,-0.23407z" fill="#1a4148" stroke="#162b2e" stroke-width="0.5"/><path d="M182.44653,179.60378c0,-0.21282 0,-0.50229 0,-0.63586c0,-0.11333 0.15305,-0.26356 0.21287,-0.26356c0.11677,0 0.45738,0 0.69115,0c0.11313,0 0.22946,0.12 0.22946,0.21748c0,0.1256 0,0.45448 0,0.68193c0,0.13486 -0.14351,0.23407 -0.23868,0.23407c-0.13316,0 -0.41513,0 -0.63586,0c-0.10909,0 -0.25895,-0.11882 -0.25895,-0.23407z" fill="#1a4148" stroke="#162b2e" stroke-width="0.5"/><path d="M180.64005,181.48112c0,-0.21282 0,-0.50229 0,-0.63586c0,-0.11333 0.15305,-0.26356 0.21287,-0.26356c0.11677,0 0.45738,0 0.69115,0c0.11313,0 0.22946,0.12 0.22946,0.21748c0,0.1256 0,0.45448 0,0.68193c0,0.13486 -0.14351,0.23407 -0.23868,0.23407c-0.13316,0 -0.41513,0 -0.63586,0c-0.10909,0 -0.25895,-0.11882 -0.25895,-0.23407z" fill="#1a4148" stroke="#162b2e" stroke-width="0.5"/><path d="M182.44653,181.51654c0,-0.21282 0,-0.50229 0,-0.63586c0,-0.11333 0.15305,-0.26356 0.21287,-0.26356c0.11677,0 0.45738,0 0.69115,0c0.11313,0 0.22946,0.12 0.22946,0.21748c0,0.1256 0,0.45448 0,0.68193c0,0.13486 -0.14351,0.23407 -0.23868,0.23407c-0.13316,0 -0.41513,0 -0.63586,0c-0.10909,0 -0.25895,-0.11882 -0.25895,-0.23407z" fill="#1a4148" stroke="#162b2e" stroke-width="0.5"/><path d="M184.52195,181.56353c0,-0.818 0,-1.9307 0,-2.44407c0,-0.4356 0.58828,-1.01305 0.81823,-1.01305c0.44884,0 1.75805,0 2.6566,0c0.43483,0 0.88199,0.46124 0.88199,0.83594c0,0.48276 0,1.74693 0,2.62118c0,0.5184 -0.55161,0.8997 -0.91742,0.8997c-0.51183,0 -1.59563,0 -2.44407,0c-0.41934,0 -0.99534,-0.4567 -0.99534,-0.8997z" fill="#1e4b54" stroke="#112224" stroke-width="0.5"/><path d="M185.28351,179.62568c0,-0.21282 0,-0.50229 0,-0.63586c0,-0.11333 0.15305,-0.26356 0.21287,-0.26356c0.11677,0 0.45738,0 0.69115,0c0.11313,0 0.22946,0.12 0.22946,0.21748c0,0.1256 0,0.45448 0,0.68193c0,0.13486 -0.14351,0.23407 -0.23868,0.23407c-0.13316,0 -0.41513,0 -0.63586,0c-0.10909,0 -0.25895,-0.11882 -0.25895,-0.23407z" fill="#1a4148" stroke="#162b2e" stroke-width="0.5"/><path d="M187.09,179.66111c0,-0.21282 0,-0.50229 0,-0.63586c0,-0.11333 0.15305,-0.26356 0.21287,-0.26356c0.11677,0 0.45738,0 0.69115,0c0.11313,0 0.22946,0.12 0.22946,0.21748c0,0.1256 0,0.45448 0,0.68193c0,0.13486 -0.14351,0.23407 -0.23868,0.23407c-0.13316,0 -0.41513,0 -0.63586,0c-0.10909,0 -0.25895,-0.11882 -0.25895,-0.23407z" fill="#1a4148" stroke="#162b2e" stroke-width="0.5"/><path d="M185.28351,181.53844c0,-0.21282 0,-0.50229 0,-0.63586c0,-0.11333 0.15305,-0.26356 0.21287,-0.26356c0.11677,0 0.45738,0 0.69115,0c0.11313,0 0.22946,0.12 0.22946,0.21748c0,0.1256 0,0.45448 0,0.68193c0,0.13486 -0.14351,0.23407 -0.23868,0.23407c-0.13316,0 -0.41513,0 -0.63586,0c-0.10909,0 -0.25895,-0.11882 -0.25895,-0.23407z" fill="#1a4148" stroke="#162b2e" stroke-width="0.5"/><path d="M187.09,181.57386c0,-0.21282 0,-0.50229 0,-0.63586c0,-0.11333 0.15305,-0.26356 0.21287,-0.26356c0.11677,0 0.45738,0 0.69115,0c0.11313,0 0.22946,0.12 0.22946,0.21748c0,0.1256 0,0.45448 0,0.68193c0,0.13486 -0.14351,0.23407 -0.23868,0.23407c-0.13316,0 -0.41513,0 -0.63586,0c-0.10909,0 -0.25895,-0.11882 -0.25895,-0.23407z" fill="#1a4148" stroke="#162b2e" stroke-width="0.5"/><path d="M179.93581,176.92006c0,-0.818 0,-1.9307 0,-2.44407c0,-0.4356 0.58828,-1.01305 0.81823,-1.01305c0.44884,0 1.75805,0 2.6566,0c0.43483,0 0.88199,0.46124 0.88199,0.83594c0,0.48276 0,1.74693 0,2.62118c0,0.5184 -0.55161,0.8997 -0.91742,0.8997c-0.51183,0 -1.59563,0 -2.44407,0c-0.41934,0 -0.99534,-0.4567 -0.99534,-0.8997z" fill="#1e4b54" stroke="#112224" stroke-width="0.5"/><path d="M180.69737,174.98222c0,-0.21282 0,-0.50229 0,-0.63586c0,-0.11333 0.15305,-0.26356 0.21287,-0.26356c0.11677,0 0.45738,0 0.69115,0c0.11313,0 0.22946,0.12 0.22946,0.21748c0,0.1256 0,0.45448 0,0.68193c0,0.13486 -0.14351,0.23407 -0.23868,0.23407c-0.13316,0 -0.41513,0 -0.63586,0c-0.10909,0 -0.25895,-0.11882 -0.25895,-0.23407z" fill="#1a4148" stroke="#162b2e" stroke-width="0.5"/><path d="M182.50386,175.01765c0,-0.21282 0,-0.50229 0,-0.63586c0,-0.11333 0.15305,-0.26356 0.21287,-0.26356c0.11677,0 0.45738,0 0.69115,0c0.11313,0 0.22946,0.12 0.22946,0.21748c0,0.1256 0,0.45448 0,0.68193c0,0.13486 -0.14351,0.23407 -0.23868,0.23407c-0.13316,0 -0.41513,0 -0.63586,0c-0.10909,0 -0.25895,-0.11882 -0.25895,-0.23407z" fill="#1a4148" stroke="#162b2e" stroke-width="0.5"/><path d="M180.69737,176.89498c0,-0.21282 0,-0.50229 0,-0.63586c0,-0.11333 0.15305,-0.26356 0.21287,-0.26356c0.11677,0 0.45738,0 0.69115,0c0.11313,0 0.22946,0.12 0.22946,0.21748c0,0.1256 0,0.45448 0,0.68193c0,0.13486 -0.14351,0.23407 -0.23868,0.23407c-0.13316,0 -0.41513,0 -0.63586,0c-0.10909,0 -0.25895,-0.11882 -0.25895,-0.23407z" fill="#1a4148" stroke="#162b2e" stroke-width="0.5"/><path d="M182.50386,176.9304c0,-0.21282 0,-0.50229 0,-0.63586c0,-0.11333 0.15305,-0.26356 0.21287,-0.26356c0.11677,0 0.45738,0 0.69115,0c0.11313,0 0.22946,0.12 0.22946,0.21748c0,0.1256 0,0.45448 0,0.68193c0,0.13486 -0.14351,0.23407 -0.23868,0.23407c-0.13316,0 -0.41513,0 -0.63586,0c-0.10909,0 -0.25895,-0.11882 -0.25895,-0.23407z" fill="#1a4148" stroke="#162b2e" stroke-width="0.5"/><path d="M184.57927,176.97739c0,-0.818 0,-1.9307 0,-2.44407c0,-0.4356 0.58828,-1.01305 0.81823,-1.01305c0.44884,0 1.75805,0 2.6566,0c0.43483,0 0.88199,0.46124 0.88199,0.83594c0,0.48276 0,1.74693 0,2.62118c0,0.5184 -0.55161,0.8997 -0.91742,0.8997c-0.51183,0 -1.59563,0 -2.44407,0c-0.41934,0 -0.99534,-0.4567 -0.99534,-0.8997z" fill="#1e4b54" stroke="#112224" stroke-width="0.5"/><path d="M185.34083,175.03955c0,-0.21282 0,-0.50229 0,-0.63586c0,-0.11333 0.15305,-0.26356 0.21287,-0.26356c0.11677,0 0.45738,0 0.69115,0c0.11313,0 0.22946,0.12 0.22946,0.21748c0,0.1256 0,0.45448 0,0.68193c0,0.13486 -0.14351,0.23407 -0.23868,0.23407c-0.13316,0 -0.41513,0 -0.63586,0c-0.10909,0 -0.25895,-0.11882 -0.25895,-0.23407z" fill="#1a4148" stroke="#162b2e" stroke-width="0.5"/><path d="M187.14732,175.07497c0,-0.21282 0,-0.50229 0,-0.63586c0,-0.11333 0.15305,-0.26356 0.21287,-0.26356c0.11677,0 0.45738,0 0.69115,0c0.11313,0 0.22946,0.12 0.22946,0.21748c0,0.1256 0,0.45448 0,0.68193c0,0.13486 -0.14351,0.23407 -0.23868,0.23407c-0.13316,0 -0.41513,0 -0.63586,0c-0.10909,0 -0.25895,-0.11882 -0.25895,-0.23407z" fill="#1a4148" stroke="#162b2e" stroke-width="0.5"/><path d="M185.34083,176.9523c0,-0.21282 0,-0.50229 0,-0.63586c0,-0.11333 0.15305,-0.26356 0.21287,-0.26356c0.11677,0 0.45738,0 0.69115,0c0.11313,0 0.22946,0.12 0.22946,0.21748c0,0.1256 0,0.45448 0,0.68193c0,0.13486 -0.14351,0.23407 -0.23868,0.23407c-0.13316,0 -0.41513,0 -0.63586,0c-0.10909,0 -0.25895,-0.11882 -0.25895,-0.23407z" fill="#1a4148" stroke="#162b2e" stroke-width="0.5"/><path d="M187.14732,176.98772c0,-0.21282 0,-0.50229 0,-0.63586c0,-0.11333 0.15305,-0.26356 0.21287,-0.26356c0.11677,0 0.45738,0 0.69115,0c0.11313,0 0.22946,0.12 0.22946,0.21748c0,0.1256 0,0.45448 0,0.68193c0,0.13486 -0.14351,0.23407 -0.23868,0.23407c-0.13316,0 -0.41513,0 -0.63586,0c-0.10909,0 -0.25895,-0.11882 -0.25895,-0.23407z" fill="#1a4148" stroke="#162b2e" stroke-width="0.5"/></g></g></svg>